<svg xmlns="http://www.w3.org/2000/svg" viewBox="0 0 121.31 91.41" id="questions"><g data-name="Layer 2"><g data-name="Color with Outlinev"><path fill="#78a9ef" stroke="#000" stroke-miterlimit="10" d="M107.62,74.23H22.85a6.37,6.37,0,0,0-4.58,1.94l-13.45,14A2.51,2.51,0,0,1,.5,88.4V14.07A13.56,13.56,0,0,1,14.07.5h95.7a11,11,0,0,1,11,11V61A13.2,13.2,0,0,1,107.62,74.23Z"></path><rect width="54.92" height="5.15" x="19.77" y="17.5" fill="#fff" stroke="#000" stroke-miterlimit="10"></rect><rect width="54.92" height="5.15" x="19.77" y="33.62" fill="#fff" stroke="#000" stroke-miterlimit="10"></rect><rect width="54.92" height="5.15" x="19.77" y="49.73" fill="#fff" stroke="#000" stroke-miterlimit="10"></rect><path fill="#fff" stroke="#000" stroke-miterlimit="10" d="M94.19,42.85V42a18.63,18.63,0,0,1,.45-4.58A6.82,6.82,0,0,1,96,34.69a10.09,10.09,0,0,1,2.18-1.88c.74-.48,1.4-1,2-1.41A6.05,6.05,0,0,0,101.54,30a3,3,0,0,0,.52-1.74,2.77,2.77,0,0,0-1.55-2.56,3.39,3.39,0,0,0-1.59-.37,3.56,3.56,0,0,0-1.73.44,3.4,3.4,0,0,0-1.27,1.2,3.26,3.26,0,0,0-.48,1.77H86.52a10.77,10.77,0,0,1,1.74-6.22A10,10,0,0,1,92.79,19,16.6,16.6,0,0,1,99,17.84a18.85,18.85,0,0,1,6.65,1.09,10,10,0,0,1,4.62,3.27A8.65,8.65,0,0,1,112,27.66a8.91,8.91,0,0,1-.72,3.7,8.69,8.69,0,0,1-2,2.8,16,16,0,0,1-3,2.21,12.92,12.92,0,0,0-2.11,1.5,5.3,5.3,0,0,0-1.29,1.76,5.89,5.89,0,0,0-.43,2.38v.84Zm4.25,11.7A4.73,4.73,0,0,1,95,53.13a4.63,4.63,0,0,1-1.42-3.46A4.52,4.52,0,0,1,95,46.28a4.85,4.85,0,0,1,6.84,0,4.59,4.59,0,0,1,1.49,3.39,4.76,4.76,0,0,1-.7,2.47,5.38,5.38,0,0,1-1.79,1.76A4.63,4.63,0,0,1,98.44,54.55Z"></path></g></g></svg>